<mxfile host="app.diagrams.net" modified="2023-11-30T10:07:06.568Z" agent="Mozilla/5.0 (Windows NT 10.0; Win64; x64) AppleWebKit/537.36 (KHTML, like Gecko) Chrome/119.0.0.0 Safari/537.36" etag="IR9C-SYISMFq26JDipgu" version="22.1.5" type="github">
  <diagram name="페이지-1" id="KE2ormnhdfFKnwgUk9af">
    <mxGraphModel dx="875" dy="445" grid="1" gridSize="10" guides="1" tooltips="1" connect="1" arrows="1" fold="1" page="1" pageScale="1" pageWidth="700" pageHeight="800" math="0" shadow="0">
      <root>
        <mxCell id="0" />
        <mxCell id="1" parent="0" />
        <mxCell id="j1-JMFBXJGA8xMu4X_Wr-1" value="&amp;lt;interface&amp;gt;&lt;br&gt;Table.Exporter" style="swimlane;fontStyle=0;childLayout=stackLayout;horizontal=1;startSize=40;fillColor=none;horizontalStack=0;resizeParent=1;resizeParentMax=0;resizeLast=0;collapsible=1;marginBottom=0;whiteSpace=wrap;html=1;" vertex="1" parent="1">
          <mxGeometry x="50" y="80" width="260" height="144" as="geometry" />
        </mxCell>
        <mxCell id="j1-JMFBXJGA8xMu4X_Wr-2" value="+ startTable() : void" style="text;strokeColor=none;fillColor=none;align=left;verticalAlign=top;spacingLeft=4;spacingRight=4;overflow=hidden;rotatable=0;points=[[0,0.5],[1,0.5]];portConstraint=eastwest;whiteSpace=wrap;html=1;" vertex="1" parent="j1-JMFBXJGA8xMu4X_Wr-1">
          <mxGeometry y="40" width="260" height="26" as="geometry" />
        </mxCell>
        <mxCell id="j1-JMFBXJGA8xMu4X_Wr-3" value="+ storeMetadata(String,int,int,Iterator) : void" style="text;strokeColor=none;fillColor=none;align=left;verticalAlign=top;spacingLeft=4;spacingRight=4;overflow=hidden;rotatable=0;points=[[0,0.5],[1,0.5]];portConstraint=eastwest;whiteSpace=wrap;html=1;" vertex="1" parent="j1-JMFBXJGA8xMu4X_Wr-1">
          <mxGeometry y="66" width="260" height="26" as="geometry" />
        </mxCell>
        <mxCell id="j1-JMFBXJGA8xMu4X_Wr-4" value="+ storeRow(Iterator) : void" style="text;strokeColor=none;fillColor=none;align=left;verticalAlign=top;spacingLeft=4;spacingRight=4;overflow=hidden;rotatable=0;points=[[0,0.5],[1,0.5]];portConstraint=eastwest;whiteSpace=wrap;html=1;" vertex="1" parent="j1-JMFBXJGA8xMu4X_Wr-1">
          <mxGeometry y="92" width="260" height="26" as="geometry" />
        </mxCell>
        <mxCell id="j1-JMFBXJGA8xMu4X_Wr-9" value="+ endTable() : void" style="text;strokeColor=none;fillColor=none;align=left;verticalAlign=top;spacingLeft=4;spacingRight=4;overflow=hidden;rotatable=0;points=[[0,0.5],[1,0.5]];portConstraint=eastwest;whiteSpace=wrap;html=1;" vertex="1" parent="j1-JMFBXJGA8xMu4X_Wr-1">
          <mxGeometry y="118" width="260" height="26" as="geometry" />
        </mxCell>
        <mxCell id="j1-JMFBXJGA8xMu4X_Wr-10" style="edgeStyle=orthogonalEdgeStyle;rounded=0;orthogonalLoop=1;jettySize=auto;html=1;exitX=0.5;exitY=0;exitDx=0;exitDy=0;dashed=1;endArrow=block;endFill=0;" edge="1" parent="1" source="j1-JMFBXJGA8xMu4X_Wr-5" target="j1-JMFBXJGA8xMu4X_Wr-1">
          <mxGeometry relative="1" as="geometry" />
        </mxCell>
        <mxCell id="j1-JMFBXJGA8xMu4X_Wr-5" value="XMLExporter" style="swimlane;fontStyle=1;align=center;verticalAlign=top;childLayout=stackLayout;horizontal=1;startSize=26;horizontalStack=0;resizeParent=1;resizeParentMax=0;resizeLast=0;collapsible=1;marginBottom=0;whiteSpace=wrap;html=1;" vertex="1" parent="1">
          <mxGeometry x="100" y="300" width="160" height="86" as="geometry" />
        </mxCell>
        <mxCell id="j1-JMFBXJGA8xMu4X_Wr-6" value="+ field: type" style="text;strokeColor=none;fillColor=none;align=left;verticalAlign=top;spacingLeft=4;spacingRight=4;overflow=hidden;rotatable=0;points=[[0,0.5],[1,0.5]];portConstraint=eastwest;whiteSpace=wrap;html=1;" vertex="1" parent="j1-JMFBXJGA8xMu4X_Wr-5">
          <mxGeometry y="26" width="160" height="26" as="geometry" />
        </mxCell>
        <mxCell id="j1-JMFBXJGA8xMu4X_Wr-7" value="" style="line;strokeWidth=1;fillColor=none;align=left;verticalAlign=middle;spacingTop=-1;spacingLeft=3;spacingRight=3;rotatable=0;labelPosition=right;points=[];portConstraint=eastwest;strokeColor=inherit;" vertex="1" parent="j1-JMFBXJGA8xMu4X_Wr-5">
          <mxGeometry y="52" width="160" height="8" as="geometry" />
        </mxCell>
        <mxCell id="j1-JMFBXJGA8xMu4X_Wr-8" value="+ method(type): type" style="text;strokeColor=none;fillColor=none;align=left;verticalAlign=top;spacingLeft=4;spacingRight=4;overflow=hidden;rotatable=0;points=[[0,0.5],[1,0.5]];portConstraint=eastwest;whiteSpace=wrap;html=1;" vertex="1" parent="j1-JMFBXJGA8xMu4X_Wr-5">
          <mxGeometry y="60" width="160" height="26" as="geometry" />
        </mxCell>
        <mxCell id="j1-JMFBXJGA8xMu4X_Wr-11" value="ConcreteTable" style="swimlane;fontStyle=1;align=center;verticalAlign=top;childLayout=stackLayout;horizontal=1;startSize=26;horizontalStack=0;resizeParent=1;resizeParentMax=0;resizeLast=0;collapsible=1;marginBottom=0;whiteSpace=wrap;html=1;" vertex="1" parent="1">
          <mxGeometry x="340" y="294" width="330" height="90" as="geometry" />
        </mxCell>
        <mxCell id="j1-JMFBXJGA8xMu4X_Wr-12" value="+ columnNames: String[]" style="text;strokeColor=none;fillColor=none;align=left;verticalAlign=top;spacingLeft=4;spacingRight=4;overflow=hidden;rotatable=0;points=[[0,0.5],[1,0.5]];portConstraint=eastwest;whiteSpace=wrap;html=1;" vertex="1" parent="j1-JMFBXJGA8xMu4X_Wr-11">
          <mxGeometry y="26" width="330" height="26" as="geometry" />
        </mxCell>
        <mxCell id="j1-JMFBXJGA8xMu4X_Wr-13" value="" style="line;strokeWidth=1;fillColor=none;align=left;verticalAlign=middle;spacingTop=-1;spacingLeft=3;spacingRight=3;rotatable=0;labelPosition=right;points=[];portConstraint=eastwest;strokeColor=inherit;" vertex="1" parent="j1-JMFBXJGA8xMu4X_Wr-11">
          <mxGeometry y="52" width="330" height="8" as="geometry" />
        </mxCell>
        <mxCell id="j1-JMFBXJGA8xMu4X_Wr-14" value="+ testStore()" style="text;strokeColor=none;fillColor=none;align=left;verticalAlign=top;spacingLeft=4;spacingRight=4;overflow=hidden;rotatable=0;points=[[0,0.5],[1,0.5]];portConstraint=eastwest;whiteSpace=wrap;html=1;" vertex="1" parent="j1-JMFBXJGA8xMu4X_Wr-11">
          <mxGeometry y="60" width="330" height="30" as="geometry" />
        </mxCell>
        <mxCell id="j1-JMFBXJGA8xMu4X_Wr-15" style="edgeStyle=orthogonalEdgeStyle;rounded=0;orthogonalLoop=1;jettySize=auto;html=1;exitX=1;exitY=0.5;exitDx=0;exitDy=0;endArrow=diamondThin;endFill=1;startArrow=open;startFill=0;" edge="1" parent="1" source="j1-JMFBXJGA8xMu4X_Wr-6" target="j1-JMFBXJGA8xMu4X_Wr-11">
          <mxGeometry relative="1" as="geometry" />
        </mxCell>
      </root>
    </mxGraphModel>
  </diagram>
</mxfile>
